<?xml version="1.0" encoding="UTF-8"?>
<svg id="Layer_1" data-name="Layer 1" xmlns="http://www.w3.org/2000/svg" viewBox="0 0 891.56 385.9">
  <defs>
    <style>
      .cls-1 {
        fill: #231f20;
      }

      .cls-2 {
        fill: #040607;
      }

      .cls-3 {
        fill: #040707;
      }

      .cls-4 {
        fill: #040606;
      }

      .cls-5 {
        fill: #040505;
      }

      .cls-6 {
        fill: #040506;
      }
    </style>
  </defs>
  <text/>
  <g>
    <g>
      <path class="cls-5" d="M154.73,74.9l-21.01-29.38.58,27.21,1.98,34.2,4.08,53.86.17,14.31-33.46-.07c-.17-24.78.65-48.73,1.76-73.18l2.26-49.62.75-33.68c-3.67-.89-7.02-1-10.62-1.01l-18.61-.02-.1-17.42L235.09,0l18.1,25.76,30.26,43,17.79,25.46,16.36,23.19,11.58,16.39,10.9,15.5,17.7,25.77h-132.48s-5.88-8.61-5.88-8.61l-43.41-61.91-21.28-29.66Z"/>
      <g>
        <path class="cls-5" d="M722.06,175.04l-127.05.06-33.44-53.2-17.87-28.65-34.44-54.57-11.15-17.88c-1.29-1.43-2.69-3.13-4.72-3.18l-14.1-.29V.04s164.32-.02,164.32-.02l-.07,17.5-22.85.03c-.43,1.77.45,3.08,1.49,4.69l33.24,51.08,35.05,53.57,31.58,48.16Z"/>
        <path class="cls-5" d="M418.58,175.06h-33.44s-4.48-83.86-4.48-83.86l-4.5-71.14-10.14-2.24-22.67-.5-.05-17.26,113.88-.06v17.35s-16.85.11-16.85.11c-5.16.04-10.02.94-15.09,2.41l-2.25,65.03-4.4,90.16Z"/>
        <path class="cls-5" d="M729.83,110.47l-19.45,25.1-14.05-23.98,8.09-18.93,7.5-18.39,21.65-54.46c-4.69-1.8-9.45-2.08-14.28-2.33l-21.29-.04-.05-17.38,120.17-.07.07,17.49-13.48.42c-3.26.1-5.32,3.45-7.26,5.94l-25.59,32.92-28.27,36-13.76,17.69Z"/>
      </g>
    </g>
    <g>
      <g>
        <path class="cls-5" d="M860.43,385.84l-174.03.06-.12-16.65,27.52-.32c1.1-.01,2.06-.75,1.94-1.9l-23-36.8-38.29-59.75,121.5-.05,29.58,45.15,33.56,51.75c.93.95,1.98,1.52,3.26,1.55l18.12.34-.05,16.61Z"/>
        <path class="cls-5" d="M624.33,385.84l-141.75.03.02-16.67,24.17-.13c1.71,0,3.21-.16,4.58-1.23l27.21-41.3,28.31-43.88,8.54-12.09,41.53-.08c.43,1.24.22,2.18-.2,3.53l-29.15,93.48c-.31,1,1.8,1.7,2.53,1.52l34.25.2-.04,16.62Z"/>
      </g>
      <g>
        <polygon class="cls-5" points="423.47 385.86 357.96 385.9 351.19 375.88 299.05 302.14 276.8 270.56 426.56 270.48 426.52 285.37 423.47 385.86"/>
        <path class="cls-5" d="M163.5,368.45l31.29.73.1,16.67-125.37.02-.09-16.6,30.62-.86c2.69-.08,3.19-2.27,3.31-4.64l4.73-93.1,12.19-.02,33.41-.16,1.85,34.82,2.63,30.62,1.9,29.81c.11,1.72,1.9,2.7,3.44,2.73Z"/>
      </g>
    </g>
    <path class="cls-6" d="M811.31,245.57c-2.6.46-5.23.5-7.94-.07l-13.28-24.34-.16,24.61-8.24.05-.04-41.14,8.25-.02,13.15,23.47.23-23.48,8.04-.05-.02,40.98Z"/>
    <polygon class="cls-4" points="48.09 245.6 39.96 245.82 26.15 221.09 26.01 245.79 17.92 245.74 17.98 204.63 26.02 204.76 39.69 228.61 39.95 204.66 48.05 204.62 48.09 245.6"/>
    <path class="cls-6" d="M451.92,245.87l-6.73-11.86c-.19-.33-.64-.93-.9-.91s-.77.56-.96.89l-6.73,11.73h-8.61s9.9-18.79,9.9-18.79c.49-.94,1.25-2.05.69-3.13l-9.98-19.19,9.12.02,6.63,12.28,6.8-12.13,8.73-.13-10.08,19.71,10.58,21.3-8.47.22Z"/>
    <path class="cls-2" d="M864.93,237.66c1.57-3.67.05-8.52.66-12.48l8.04-.18-.42,16.49c-.06,2.53-3.77,4.34-6.15,4.89-7.93,1.82-16.49-1.74-19.96-9.3-5.68-12.39-1.76-30.78,11.85-33.11,5.03-.86,9.95.71,13.95,3.74-.81,2.16-2.01,3.67-3.45,5.38l-4.14-1.59c-3.14-1.2-6.13-.33-8.35,2.15-4.44,4.94-4.8,16.16-.24,22.31,1.59,2.14,6.12,4.38,8.2,1.7Z"/>
    <polygon class="cls-3" points="104.91 228.3 93.28 228.36 93.24 238.1 108.1 238.26 108.21 245.8 84.85 245.81 84.85 204.57 107.61 204.58 107.7 211.59 93.41 211.67 93.4 220.95 104.85 221.37 104.91 228.3"/>
    <path class="cls-4" d="M393.82,228.23l-11.55.1v9.73s13.89.24,13.89.24l.25,7.5-22.66.03.02-41.24,22.14.02.05,6.93-13.86.06.07,9.49,11.29.25c.58,2.28.48,4.54.34,6.89Z"/>
    <path class="cls-5" d="M693.69,245.3c-2.61.92-5.3.36-8.46.51l-.08-34.15-8.68-.19c-.54-2.27-.25-4.41-.24-6.84h26.62c.09,2.48.31,4.73-.11,7.05l-9.04.15v33.47Z"/>
    <path class="cls-3" d="M288.92,238.23c.67,2.53.44,4.87.41,7.58h-22.02s.05-41.17.05-41.17l8.23-.08.02,33.55,13.32.13Z"/>
    <path class="cls-2" d="M747.8,245.73l-12.94-.16c-.13-1.88-.55-4.18.22-5.77.26-.53,1.89-.77,1.89-1.87l.09-26.34-2.16-1.54v-5.32s12.8-.11,12.8-.11c.19,1.72.3,3.49-.06,5.12-.3.5-1.73,1.1-1.78,1.85v26.64c.02.75,1.48,1.31,1.89,1.78.36,1.67.33,3.4.05,5.73Z"/>
    <path class="cls-1" d="M574.46,217.59c2.01,8.4,1.29,21.06-6.79,21.3s-9.58-12.63-7.14-21.59c1.16-4.24,5.42-6.82,9.55-5.34,2.29.82,3.8,3.23,4.38,5.62ZM581.68,237.72c3.04-7.55,3.63-16.38.4-23.95-2.71-6.34-8.75-10.23-15.28-9.99-6.36.23-11.92,4.41-14.32,10.78-2.45,6.5-2.3,14.18-.07,20.85,2.22,6.64,8.12,10.99,15.21,11.64,6.53-.49,11.15-3.94,14.06-9.33Z"/>
    <path class="cls-1" d="M152.56,224.45l-.08-12.85c3.15-.7,6.49-.45,8.38,2.1,1.62,2.19,2,5.65.49,8.02-1.75,2.75-5,3.85-8.79,2.72ZM167.84,208.73c-2.29-2.89-6.16-4.16-9.62-4.12l-14.64.2.02,41.04,8.66-.08.2-14.13c5.34.15,10.95.08,14.92-4.02,4.85-5.02,4.6-13.68.47-18.89Z"/>
    <path class="cls-1" d="M635.15,221.43c-1.74,3.14-5.51,3.73-8.48,2.47l-.06-11.94c2.38-.63,5.3-.71,7.35,1.02,2.25,1.9,2.7,5.73,1.19,8.46ZM647.09,245.74l-8.53-16.8c4.14-2.55,6.35-6.48,6.41-11.13.08-7.16-4.62-12.46-11.83-13.08l-15.22.09v40.94s8.41-.01,8.41-.01l.36-14.15c1.2-1.49,4.04.1,4.83,1.68l6.25,12.44,9.32.02Z"/>
    <path class="cls-1" d="M510.93,216.47c.47,2.91-.28,5.12-2.21,6.73-1.54,1.29-5.07,2.07-6.88.57l-.34-12.26c4.6-.96,8.72.54,9.43,4.96ZM519.51,217.24c-.14-6.65-4.13-11.61-10.92-12.43l-15.64-.09-.06,41.05h8.58s.13-14.18.13-14.18c4.22.29,8.26.08,11.95-2,4.67-2.64,6.06-7.44,5.96-12.34Z"/>
    <path class="cls-1" d="M221.13,229.78l-8.86.13,4.63-15.6,4.24,15.48ZM225.81,245.68h8.92s-13.5-40.93-13.5-40.93l-8.82-.12-13.65,41.1,8.91-.03,2.55-8.65,13.36.22,2.24,8.4Z"/>
  </g>
</svg>